<svg width="140" height="120" viewBox="0 0 140 120" fill="none" xmlns="http://www.w3.org/2000/svg">
<path d="M74.4342 30.4119C75.942 27.7924 76.686 24.8544 77.007 21.855C77.3277 18.8576 77.993 15.455 79.296 12.7065C80.8225 9.48668 83.4001 6.61893 86.1335 4.37977C89.0447 1.99487 92.6811 0.614461 96.408 0.168436C97.8659 -0.00596152 99.3979 0.0127782 100.864 0.00770721C102.34 0.00241576 103.861 -0.0324185 105.331 0.106703C108.125 0.371054 110.819 1.40641 113.64 1.65379C115.92 1.85354 118.181 1.45712 120.46 1.52216C121.865 1.56229 123.318 1.91043 124.66 2.3042C128.921 3.55519 132.675 6.04194 135.463 9.52239C138.784 13.668 140.454 19.1599 139.893 24.4683C139.7 26.2983 139.224 27.9759 138.63 29.7073C138.378 30.439 138.149 31.2209 137.804 31.914C136.462 34.6175 134.16 37.3256 131.804 39.1871C131.05 39.7824 130.229 40.3113 129.429 40.8429C128.919 41.182 128.354 41.613 127.78 41.8295C126.974 42.1336 126.087 42.3199 125.262 42.5732C124.614 42.7719 123.963 43.0695 123.294 43.1731C121.386 43.4684 119.413 43.5219 117.519 43.8476L117.34 43.8767C117.016 43.9316 116.669 43.9918 116.388 44.1737C115.663 44.6431 114.98 45.3803 114.336 45.9631C113.599 46.6304 112.663 47.3338 112.087 48.1469C110.485 50.4101 109.157 52.9919 108.225 55.6063C107.634 57.2629 107.163 59.0283 106.376 60.6038C105.674 62.0107 104.786 63.3351 104.04 64.7212C103.591 65.5538 103.269 66.4945 102.776 67.2931C102.024 68.5108 101.066 69.5428 100.524 70.8963C99.8753 72.5188 99.469 74.226 99.0655 75.9206C98.811 76.9903 98.389 77.9856 98.6101 79.1014C98.8767 80.4487 98.9047 81.8313 99.0651 83.1965C99.1561 83.9706 99.3174 84.7399 99.3735 85.5164C99.7145 90.2395 99.0288 94.3915 96.4397 98.4271C95.1248 100.477 93.6075 102.866 91.7728 104.456C90.2124 105.809 88.1548 106.816 86.2921 107.681C85.008 108.277 83.6916 108.948 82.3008 109.245L78.3042 109.988C77.7226 110.08 77.1053 110.24 76.5181 110.233C75.2011 110.216 73.7506 109.756 72.6278 109.046C71.8119 108.53 71.3455 107.79 71.1693 106.858C71.0087 106.008 71.1165 104.88 71.62 104.148C72.1535 103.373 72.9354 102.737 73.8767 102.572C75.2877 102.325 76.7278 102.557 78.1459 102.375C82.615 101.801 86.5729 98.9377 89.2112 95.3841C91.672 92.0692 92.0555 88.9816 91.485 84.9456C91.1799 82.7867 90.2885 80.979 89.1421 79.1605C88.4509 78.0638 87.688 77.0111 86.6397 76.2288C86.022 75.7678 85.2349 75.4776 84.5179 75.2073C81.2189 73.9634 77.6502 73.9284 74.2062 74.4696C69.2131 75.2541 65.1417 78.6298 62.2783 82.6573C60.3626 85.3519 59.0156 88.6926 58.282 91.9074C57.7362 94.2995 57.398 96.762 56.7271 99.1231C56.3372 100.495 55.8843 101.941 55.2718 103.231C54.3069 105.264 52.961 107.051 51.6204 108.844C50.7259 110.04 49.8644 111.22 48.7706 112.247C47.8251 113.134 46.7069 113.894 45.6663 114.67C43.9359 115.96 42.0321 117.191 40.053 118.058C37.9268 118.989 35.4922 119.468 33.2168 119.884C32.352 120.042 31.4318 119.993 30.5553 119.992C26.0031 119.989 21.2922 118.848 17.5259 116.197C16.6578 115.586 16.0256 114.807 15.3627 113.988C15.2125 113.802 14.9181 113.317 14.7395 113.195C14.4982 113.03 13.7416 112.953 13.4251 112.857C12.8399 112.679 12.2624 112.328 11.7283 112.033C10.3791 111.287 8.85386 110.552 7.60849 109.66C3.6119 106.797 0.87477 102.282 0.0907208 97.451C-0.0302744 96.7058 0.00272429 95.9699 0.00822407 95.2187C0.0207636 93.5391 0.206875 91.815 0.698336 90.2002C1.27559 88.3032 2.57662 86.0698 3.75094 84.4709C5.31508 82.342 7.48353 81.0833 9.80774 79.9509C11.0971 79.3228 12.4102 78.712 13.8428 78.5039C16.1162 78.1736 18.4347 78.0524 20.6824 78.6355C21.6802 78.8944 22.6566 79.3561 23.6672 79.5179L24.2192 79.6144C24.4717 76.9747 24.6767 74.3076 25.1506 71.6971C25.7492 68.3995 26.8038 64.9885 27.9117 61.8319C28.3139 60.6863 28.6542 59.4741 29.1474 58.366C29.5539 57.4523 30.1334 56.5854 30.5998 55.6982L33.9274 49.7081L36.1216 46.4909C36.908 45.4447 38.0608 44.4285 38.4473 43.1423C38.5945 42.6519 38.4724 42.0242 38.4473 41.5158C38.3941 40.4359 38.4042 39.3139 38.2487 38.2455C38.0652 36.9872 37.7222 35.7477 37.4873 34.498C36.8825 31.2817 36.641 27.7003 37.1071 24.4456C37.2633 23.3549 37.6287 22.1941 37.9831 21.1528C39.2734 17.3612 41.2201 14.3345 44.3508 11.7854C48.1949 8.65504 53.9349 6.99793 58.8469 7.60711C60.1257 7.76564 61.5891 8.21011 62.4042 9.2845C62.5381 9.46088 62.6219 9.6366 62.7082 9.839L62.7733 9.98914C63.1011 10.8327 63.05 12.6715 62.6622 13.5069C62.2051 14.4917 61.2305 14.9946 60.248 15.3051C59.6866 15.4823 58.9881 15.6563 58.4007 15.6457C57.5912 15.6307 56.7955 15.4537 55.9811 15.4682C51.6954 15.5447 48.02 18.3417 46.052 22.0411C45.3711 23.3205 44.7866 24.6039 44.5384 26.0441C44.221 27.8875 44.635 30.1343 45.1797 31.8997C45.9882 34.5203 47.4557 37.2 49.9544 38.5032C51.5557 39.3386 53.2094 39.9694 55.016 40.1722C59.6149 40.6886 64.6384 39.9171 68.3802 37.0415L69.7576 35.8242C70.5221 34.9562 71.4084 34.181 72.1942 33.328C73.0357 32.4147 73.7511 31.4484 74.4342 30.4119ZM98.7542 7.68229C97.6523 7.76629 96.489 7.81414 95.407 8.03307C92.9726 8.52583 90.7472 9.85972 89.1445 11.7424C87.4583 13.7231 86.2393 16.2271 85.5571 18.7357C85.2324 19.9304 85.1271 21.2769 84.9084 22.5065C84.5232 24.6731 84.0322 26.8404 83.429 28.9581C82.7041 31.5026 81.5812 33.6573 80.2268 35.9064C79.69 36.7974 79.2031 37.7307 78.5843 38.5683C77.5235 40.004 76.2161 41.2839 74.8904 42.4716C74.2258 43.0671 73.5326 43.7151 72.7803 44.1957C72.1302 44.6111 71.334 44.8633 70.649 45.2293C69.6362 45.7706 68.5725 46.3341 67.4937 46.7308C65.4524 47.4813 62.9581 47.8991 60.7879 48.0651C59.0348 48.1991 57.3268 47.9152 55.5895 47.7681L51.8248 47.5247C48.8023 47.2531 45.7704 46.8114 43.4904 49.3681C41.2753 51.8524 39.3603 55.274 37.9631 58.2888C35.999 62.5268 34.0847 66.6963 33.1735 71.3157C32.8307 73.0533 32.7341 74.8129 32.4688 76.554C32.3982 77.0175 32.2075 77.4582 32.0926 77.9122C31.8735 78.7786 31.7211 79.625 31.6751 80.5178C31.4989 83.949 32.4952 87.0703 33.234 90.3682C33.7536 92.6879 34.0921 95.6599 33.7417 98.0049C33.5785 99.0976 33.2265 100.176 32.8972 101.227C32.6855 101.902 32.5196 102.677 32.2095 103.311C31.8194 104.107 31.2433 104.876 30.7522 105.614C29.5938 107.356 27.774 109.413 25.7681 110.197C25.3772 110.35 24.9266 110.341 24.5491 110.504C24.2854 110.618 24.0271 110.838 23.795 111.008C24.1884 111.314 24.5962 111.634 25.063 111.818C25.5904 112.027 26.2737 112.034 26.8324 112.108C28.8251 112.374 30.6895 112.518 32.6972 112.272C34.1038 112.1 35.3518 111.86 36.6854 111.371C37.9092 110.859 39.1744 110.342 40.3126 109.655C42.1485 108.548 44.0545 106.82 45.357 105.108C46.0546 104.191 46.5595 103.218 47.1271 102.224C47.6911 101.236 48.3029 100.303 48.7372 99.2424L49.4132 97.1479L49.4632 96.9521C50.0541 94.5767 50.2067 92.0875 50.6641 89.69C51.1839 86.9649 52.201 84.3115 53.4078 81.8294C54.3584 79.8742 55.7628 77.9862 57.1563 76.3305C60.2051 72.7076 63.5534 69.794 68.1054 68.2555C72.2283 66.8621 76.431 66.4731 80.755 66.745C82.0738 66.8279 83.4679 67.0195 84.7698 67.2483C86.5436 67.5601 88.2765 67.9043 90.0496 67.3566C91.5185 66.9028 92.9266 65.8174 94.0763 64.8339C95.3736 63.7242 96.787 62.3685 97.5649 60.8243C97.7928 60.3714 97.9574 59.8853 98.2055 59.443C98.7219 58.5236 99.3372 57.5683 99.7024 56.5768C100.452 54.5398 100.892 52.3454 101.766 50.3585C102.243 49.2737 102.881 48.297 103.49 47.2886C104.34 45.8799 105.157 44.4956 106.126 43.163L107.924 40.9254C107.083 40.3753 106.177 39.8439 105.402 39.2026C101.913 36.3115 99.1581 32.0093 98.2689 27.5323C97.1597 21.9463 98.3336 16.2267 101.562 11.5314C102.375 10.3487 103.447 9.29596 104.191 8.08268C102.463 7.81943 100.502 7.61857 98.7542 7.68229ZM118.121 9.10437C117.325 9.23423 116.645 9.4525 115.878 9.66152C115.255 9.83172 114.603 9.90426 114.002 10.153C111.583 11.155 109.49 13.0271 107.973 15.1463C105.847 18.1166 105.157 21.2698 105.739 24.8808C106.081 27.008 106.911 29.2315 108.286 30.9129C108.648 31.3556 109.132 31.7156 109.534 32.125C110.05 32.6498 110.573 33.2645 111.175 33.6871C113.491 35.3103 116.921 36.2012 119.72 36.0539C120.78 35.9097 121.927 35.82 122.96 35.5323C125.578 34.8025 128.061 32.7686 129.675 30.619C130.751 29.1867 131.173 27.7924 131.628 26.0877C132.147 24.144 132.414 22.477 132.113 20.4556C131.623 17.1716 129.932 13.9447 127.26 11.9062C126.195 11.0937 125.015 10.5877 123.772 10.1188C121.836 9.3879 120.219 8.86625 118.121 9.10437ZM17.1475 85.8293C14.3211 86.251 11.0683 87.3688 9.33674 89.7837C7.87005 91.8291 7.40741 94.2951 7.84124 96.7321C8.20004 98.7472 9.45641 101.502 11.1796 102.702C11.8515 103.169 12.5535 103.702 13.2924 104.054C14.382 104.572 15.6391 104.728 16.8305 104.759C17.7624 104.688 18.7442 104.67 19.6524 104.445C21.7757 103.92 23.7486 102.672 24.9152 100.775C25.3939 99.9967 25.7331 99.2122 25.8847 98.3054L25.9118 98.148C26.1346 96.749 26.1285 95.1387 25.9859 93.7325C25.7758 91.6618 24.4057 89.5192 22.8103 88.2267L22.4328 87.9189C21.9345 87.5144 21.356 87.3093 20.7849 87.0359C19.8783 86.6022 18.319 85.6968 17.3044 85.8057L17.1475 85.8293Z" fill="#3ECE4A"/>
</svg>
