<svg width="244" height="135" viewBox="0 0 244 135" fill="none" xmlns="http://www.w3.org/2000/svg">
<path d="M130.456 37.4258C132.056 35.8208 133.166 33.8368 133.98 31.7262C134.795 29.617 135.937 27.2811 137.415 25.543C139.145 23.5067 141.569 21.9295 143.984 20.838C146.556 19.6753 149.459 19.3812 152.245 19.7815C153.335 19.9382 154.441 20.2491 155.505 20.5301C156.574 20.8126 157.683 21.0827 158.721 21.4688C160.694 22.2028 162.445 23.4758 164.44 24.2025C166.053 24.7898 167.768 24.9415 169.407 25.4311C170.417 25.7328 171.402 26.2671 172.297 26.8128C175.141 28.5462 177.378 31.0765 178.723 34.1391C180.324 37.787 180.467 42.0897 179.031 45.8265C178.535 47.1146 177.865 48.2376 177.098 49.3766C176.774 49.8579 176.456 50.3797 176.072 50.815C174.575 52.513 172.382 54.028 170.313 54.9192C169.652 55.2041 168.954 55.428 168.272 55.6578C167.836 55.8044 167.343 56.007 166.885 56.0524C166.242 56.1162 165.564 56.0791 164.917 56.1023C164.409 56.1205 163.88 56.2099 163.375 56.155C161.935 55.9984 160.495 55.6543 159.06 55.5226L158.924 55.5088C158.679 55.4858 158.416 55.4619 158.177 55.5392C157.561 55.7386 156.923 56.1402 156.344 56.4373C155.68 56.7777 154.865 57.1055 154.291 57.5828C152.69 58.9113 151.227 60.5239 150.044 62.2369C149.295 63.3224 148.611 64.51 147.735 65.4986C146.953 66.3814 146.053 67.1686 145.243 68.0278C144.756 68.5438 144.34 69.1628 143.828 69.6456C143.048 70.382 142.153 70.9435 141.498 71.819C140.713 72.8684 140.087 74.0263 139.466 75.1756C139.074 75.9011 138.575 76.5402 138.518 77.3915C138.45 78.4193 138.202 79.4264 138.053 80.4465C137.969 81.025 137.936 81.6136 137.826 82.187C137.156 85.6748 135.854 88.5496 133.195 90.9706C131.844 92.2004 130.281 93.6365 128.643 94.4326C127.25 95.1098 125.564 95.4397 124.047 95.7047C123.001 95.8873 121.917 96.118 120.852 96.0627L117.812 95.8256C117.373 95.7795 116.895 95.7752 116.471 95.6559C115.52 95.3884 114.559 94.7732 113.883 94.0413C113.392 93.5091 113.198 92.8821 113.251 92.1731C113.3 91.5263 113.597 90.7301 114.104 90.2972C114.641 89.839 115.33 89.5302 116.044 89.5934C117.115 89.6884 118.113 90.1358 119.175 90.2793C122.524 90.7314 125.948 89.4252 128.549 87.3629C130.975 85.4392 131.852 83.2768 132.222 80.2422C132.42 78.619 132.125 77.1364 131.648 75.5964C131.36 74.6678 131.012 73.757 130.404 72.9868C130.046 72.533 129.532 72.17 129.065 71.835C126.917 70.2934 124.338 69.5753 121.738 69.2989C117.969 68.898 114.364 70.5532 111.508 72.915C109.597 74.4953 107.973 76.6539 106.817 78.8404C105.957 80.4675 105.234 82.1858 104.29 83.766C103.741 84.6842 103.132 85.6437 102.438 86.4597C101.345 87.7447 100.023 88.7785 98.7035 89.817C97.8233 90.51 96.9701 91.1978 95.9784 91.7291C95.1212 92.1883 94.1637 92.5215 93.2592 92.8817C91.7551 93.4805 90.1369 94.003 88.535 94.2466C86.814 94.5082 84.9572 94.3827 83.2281 94.2424C82.571 94.1889 81.9138 93.975 81.279 93.8044C77.9818 92.9181 74.7905 91.1771 72.5766 88.5255C72.0664 87.9143 71.7595 87.2275 71.4384 86.5052C71.3655 86.3415 71.2464 85.9332 71.1407 85.8102C70.9979 85.6437 70.4647 85.4412 70.2541 85.3098C69.8648 85.067 69.5144 84.7013 69.1848 84.3837C68.3522 83.5812 67.3899 82.7529 66.6609 81.8648C64.3214 79.0146 63.2148 75.213 63.5846 71.5608C63.6416 70.9974 63.8084 70.4707 63.9582 69.9276C64.2933 68.7132 64.7628 67.5003 65.4323 66.4259C66.2187 65.1637 67.5948 63.7983 68.7559 62.8679C70.3023 61.6292 72.1175 61.1383 74.0211 60.7691C75.0771 60.5643 76.1469 60.3768 77.2252 60.5041C78.9362 60.7061 80.6394 61.0683 82.1545 61.9271C82.8271 62.3083 83.4448 62.8323 84.1456 63.1457L84.5267 63.3228C85.2221 61.4595 85.8883 59.5671 86.7383 57.768C87.8121 55.4952 89.2382 53.2288 90.6536 51.1571C91.1673 50.4053 91.6491 49.5932 92.2215 48.8861C92.6934 48.3032 93.2815 47.7876 93.7916 47.2354L97.365 43.5418L99.5791 41.6371C100.352 41.0319 101.384 40.5195 101.914 39.6627C102.116 39.336 102.149 38.8576 102.23 38.4844C102.401 37.6917 102.626 36.8809 102.721 36.0766C102.832 35.1295 102.824 34.1649 102.896 33.214C103.083 30.7666 103.603 28.1252 104.572 25.8578C104.897 25.098 105.387 24.328 105.846 23.6424C107.517 21.1461 109.515 19.3313 112.278 18.0923C115.67 16.5707 120.15 16.4845 123.59 17.8793C124.486 18.2423 125.46 18.8484 125.842 19.7849C125.904 19.9387 125.931 20.0823 125.954 20.2457L125.972 20.3671C126.046 21.0418 125.652 22.364 125.209 22.8939C124.687 23.5186 123.883 23.6938 123.111 23.728C122.67 23.7474 122.13 23.7379 121.707 23.6162C121.123 23.4482 120.581 23.1654 119.988 23.0179C116.869 22.2414 113.663 23.5542 111.519 25.8522C110.778 26.6469 110.105 27.4632 109.646 28.4583C109.058 29.7322 108.922 31.4403 108.974 32.8249C109.051 34.8803 109.594 37.1065 111.151 38.5356C112.149 39.4516 113.224 40.2296 114.494 40.7272C117.725 41.994 121.514 42.4103 124.783 41.0534L126.017 40.4389C126.739 39.9585 127.532 39.5689 128.267 39.1035C129.054 38.6053 129.76 38.0441 130.456 37.4258ZM152.486 25.6803C151.672 25.5273 150.82 25.3361 149.993 25.2847C148.134 25.1691 146.263 25.7035 144.736 26.7562C143.13 27.8639 141.761 29.4412 140.78 31.1261C140.313 31.9286 139.975 32.8836 139.578 33.732C138.878 35.2268 138.102 36.7015 137.254 38.1186C136.235 39.8213 135.003 41.1643 133.585 42.5307C133.024 43.0719 132.49 43.6535 131.879 44.1402C130.832 44.9744 129.636 45.6478 128.445 46.2509C127.848 46.5533 127.22 46.8882 126.582 47.0903C126.03 47.2651 125.404 47.2932 124.837 47.4254C123.998 47.6209 123.118 47.8227 122.26 47.9006C120.635 48.0481 118.747 47.8666 117.143 47.5656C115.847 47.3224 114.665 46.7851 113.435 46.3414L110.754 45.4342C108.618 44.6508 106.507 43.7423 104.359 45.1519C102.272 46.5216 100.22 48.6286 98.623 50.5415C96.3775 53.2304 94.1813 55.8794 92.6245 59.049C92.0389 60.2413 91.6274 61.4973 91.0972 62.7071C90.9561 63.0291 90.7323 63.3114 90.561 63.618C90.2341 64.2032 89.9593 64.7867 89.7528 65.4245C88.959 67.8761 89.0749 70.3307 88.9699 72.8632C88.8961 74.6446 88.5645 76.8634 87.8554 78.4941C87.525 79.254 87.0607 79.9669 86.6182 80.6642C86.3337 81.1124 86.0631 81.6419 85.7154 82.0405C85.2783 82.5417 84.7116 82.9871 84.2126 83.4265C83.0353 84.463 81.3176 85.6004 79.7122 85.779C79.3994 85.8139 79.0747 85.72 78.7696 85.7648C78.5564 85.796 78.3265 85.9056 78.1255 85.9833C78.351 86.2814 78.5844 86.5923 78.8868 86.8166C79.2283 87.0699 79.722 87.2075 80.1124 87.3698C81.5044 87.9492 82.8271 88.4153 84.3292 88.6272C85.3816 88.7759 86.3324 88.8437 87.3933 88.7488C88.3793 88.6153 89.3963 88.486 90.3542 88.2096C91.8991 87.7638 93.6153 86.8819 94.8913 85.8945C95.5746 85.3656 96.1293 84.7586 96.7334 84.1489C97.3337 83.543 97.9581 82.9855 98.4786 82.3015L99.3749 80.9154L99.4491 80.7832C100.338 79.1771 100.932 77.4034 101.729 75.7554C102.634 73.8821 103.886 72.1572 105.242 70.5934C106.31 69.3614 107.694 68.2664 109.025 67.3373C111.937 65.3046 114.928 63.8438 118.525 63.6128C121.782 63.4037 124.902 63.9378 127.982 64.974C128.921 65.2901 129.894 65.6995 130.793 66.118C132.017 66.6882 133.206 67.2739 134.597 67.2213C135.749 67.1777 136.98 66.6648 138.003 66.1754C139.159 65.6233 140.446 64.9156 141.309 63.9479C141.562 63.664 141.776 63.3438 142.041 63.0716C142.594 62.5057 143.225 61.9331 143.682 61.2857C144.621 59.9556 145.365 58.4512 146.384 57.1814C146.94 56.4882 147.592 55.9044 148.229 55.292C149.118 54.4366 149.979 53.5923 150.94 52.8151L152.676 51.5431C152.174 50.9812 151.62 50.4204 151.184 49.8055C149.217 47.0337 148.057 43.3823 148.281 39.9663C148.562 35.7043 150.523 31.7886 153.773 29.0139C154.592 28.3149 155.573 27.7602 156.347 27.0257C155.146 26.4995 153.765 25.9735 152.486 25.6803ZM166.24 30.4699C165.639 30.4095 165.104 30.4356 164.508 30.4382C164.023 30.4405 163.537 30.3665 163.053 30.4301C161.106 30.6863 159.226 31.6363 157.716 32.877C155.599 34.6161 154.487 36.7667 154.208 39.4955C154.043 41.1029 154.213 42.8749 154.882 44.3598C155.058 44.7508 155.339 45.1056 155.551 45.4803C155.823 45.9605 156.082 46.5073 156.437 46.9304C157.799 48.5558 160.111 49.8671 162.167 50.3037C162.964 50.4051 163.812 50.5628 164.616 50.5548C166.654 50.5343 168.847 49.5427 170.434 48.2988C171.492 47.4701 172.068 46.5419 172.729 45.3953C173.482 44.0878 173.999 42.9321 174.173 41.4093C174.456 38.9351 173.857 36.2692 172.317 34.2736C171.703 33.4783 170.946 32.8827 170.137 32.3017C168.876 31.3964 167.806 30.7046 166.24 30.4699ZM78.1973 66.4524C76.0678 66.2093 73.4944 66.3877 71.7712 67.801C70.3116 68.9981 69.4978 70.6948 69.339 72.5444C69.2078 74.0739 69.5832 76.3135 70.5987 77.5171C70.9946 77.9863 71.3997 78.5088 71.8668 78.9068C72.5556 79.4938 73.4359 79.8509 74.2931 80.1046C74.982 80.2337 75.6967 80.4115 76.3982 80.425C78.0384 80.4567 79.71 79.9354 80.9234 78.7874C81.4212 78.3167 81.8193 77.8142 82.1051 77.1867L82.1553 77.0779C82.5883 76.1077 82.8964 74.9399 83.0661 73.8935C83.3158 72.3526 82.7392 70.5345 81.8343 69.2885L81.6206 68.9922C81.3381 68.6024 80.9588 68.3415 80.5981 68.0326C80.0255 67.5425 79.0717 66.5838 78.3155 66.4658L78.1973 66.4524Z" fill="#3ECE4A"/>
<path d="M14.7734 114V130H11.8516L4.89063 119.93H4.77344V130H1.39062V114H4.35938L11.2656 124.062H11.4063V114H14.7734ZM18.0084 130V114H28.7896V116.789H21.3912V120.602H28.2349V123.391H21.3912V127.211H28.8209V130H18.0084ZM41.8019 114H45.1847V124.391C45.1847 125.557 44.906 126.578 44.3487 127.453C43.7967 128.328 43.0232 129.01 42.0284 129.5C41.0336 129.984 39.8748 130.227 38.5519 130.227C37.2237 130.227 36.0623 129.984 35.0675 129.5C34.0727 129.01 33.2993 128.328 32.7472 127.453C32.1951 126.578 31.9191 125.557 31.9191 124.391V114H35.3019V124.102C35.3019 124.711 35.4347 125.253 35.7003 125.727C35.9711 126.201 36.3514 126.573 36.8409 126.844C37.3305 127.115 37.9008 127.25 38.5519 127.25C39.2081 127.25 39.7784 127.115 40.2628 126.844C40.7524 126.573 41.13 126.201 41.3956 125.727C41.6665 125.253 41.8019 124.711 41.8019 124.102V114ZM48.4079 130V114H54.7204C55.9287 114 56.96 114.216 57.8141 114.648C58.6735 115.076 59.3272 115.682 59.7751 116.469C60.2282 117.25 60.4548 118.169 60.4548 119.227C60.4548 120.289 60.2256 121.203 59.7673 121.969C59.3089 122.729 58.6449 123.312 57.7751 123.719C56.9105 124.125 55.8636 124.328 54.6345 124.328H50.4079V121.609H54.0876C54.7334 121.609 55.2699 121.521 55.697 121.344C56.124 121.167 56.4417 120.901 56.6501 120.547C56.8636 120.193 56.9704 119.753 56.9704 119.227C56.9704 118.695 56.8636 118.247 56.6501 117.883C56.4417 117.518 56.1214 117.242 55.6891 117.055C55.2621 116.862 54.723 116.766 54.072 116.766H51.7907V130H48.4079ZM57.0485 122.719L61.0251 130H57.2907L53.4001 122.719H57.0485ZM66.0432 130H62.4182L67.9416 114H72.301L77.8166 130H74.1916L70.1838 117.656H70.0588L66.0432 130ZM65.8166 123.711H74.3791V126.352H65.8166V123.711ZM80.1824 130V114H83.5652V127.211H90.4246V130H80.1824ZM112.019 114V130H109.098L102.137 119.93H102.019V130H98.6366V114H101.605L108.512 124.062H108.652V114H112.019ZM115.254 130V114H126.036V116.789H118.637V120.602H125.481V123.391H118.637V127.211H126.067V130H115.254ZM128.556 116.789V114H141.696V116.789H136.798V130H133.454V116.789H128.556ZM147.902 130L143.324 114H147.019L149.668 125.117H149.8L152.722 114H155.886L158.8 125.141H158.941L161.589 114H165.285L160.707 130H157.41L154.363 119.539H154.238L151.199 130H147.902ZM181.336 122C181.336 123.745 181.005 125.229 180.344 126.453C179.688 127.677 178.792 128.612 177.656 129.258C176.526 129.898 175.255 130.219 173.844 130.219C172.422 130.219 171.146 129.896 170.016 129.25C168.886 128.604 167.992 127.669 167.336 126.445C166.68 125.221 166.352 123.74 166.352 122C166.352 120.255 166.68 118.771 167.336 117.547C167.992 116.323 168.886 115.391 170.016 114.75C171.146 114.104 172.422 113.781 173.844 113.781C175.255 113.781 176.526 114.104 177.656 114.75C178.792 115.391 179.688 116.323 180.344 117.547C181.005 118.771 181.336 120.255 181.336 122ZM177.906 122C177.906 120.87 177.737 119.917 177.399 119.141C177.065 118.365 176.594 117.776 175.985 117.375C175.375 116.974 174.662 116.773 173.844 116.773C173.026 116.773 172.313 116.974 171.703 117.375C171.094 117.776 170.62 118.365 170.281 119.141C169.948 119.917 169.781 120.87 169.781 122C169.781 123.13 169.948 124.083 170.281 124.859C170.62 125.635 171.094 126.224 171.703 126.625C172.313 127.026 173.026 127.227 173.844 127.227C174.662 127.227 175.375 127.026 175.985 126.625C176.594 126.224 177.065 125.635 177.399 124.859C177.737 124.083 177.906 123.13 177.906 122ZM184.282 130V114H190.594C191.803 114 192.834 114.216 193.688 114.648C194.548 115.076 195.201 115.682 195.649 116.469C196.102 117.25 196.329 118.169 196.329 119.227C196.329 120.289 196.1 121.203 195.641 121.969C195.183 122.729 194.519 123.312 193.649 123.719C192.785 124.125 191.738 124.328 190.509 124.328H186.282V121.609H189.962C190.607 121.609 191.144 121.521 191.571 121.344C191.998 121.167 192.316 120.901 192.524 120.547C192.738 120.193 192.844 119.753 192.844 119.227C192.844 118.695 192.738 118.247 192.524 117.883C192.316 117.518 191.995 117.242 191.563 117.055C191.136 116.862 190.597 116.766 189.946 116.766H187.665V130H184.282ZM192.923 122.719L196.899 130H193.165L189.274 122.719H192.923ZM199.159 130V114H202.542V121.055H202.753L208.511 114H212.566L206.628 121.164L212.636 130H208.589L204.206 123.422L202.542 125.453V130H199.159ZM214.767 130V114H225.549V116.789H218.15V120.602H224.994V123.391H218.15V127.211H225.58V130H214.767ZM234.35 130H228.678V114H234.397C236.006 114 237.392 114.32 238.553 114.961C239.715 115.596 240.608 116.51 241.233 117.703C241.863 118.896 242.178 120.323 242.178 121.984C242.178 123.651 241.863 125.083 241.233 126.281C240.608 127.479 239.709 128.398 238.538 129.039C237.371 129.68 235.975 130 234.35 130ZM232.061 127.102H234.209C235.209 127.102 236.051 126.924 236.733 126.57C237.42 126.211 237.936 125.656 238.28 124.906C238.629 124.151 238.803 123.177 238.803 121.984C238.803 120.802 238.629 119.836 238.28 119.086C237.936 118.336 237.423 117.784 236.741 117.43C236.058 117.076 235.217 116.898 234.217 116.898H232.061V127.102Z" fill="#FFFBFB"/>
</svg>
